<?xml version="1.0" encoding="UTF-8" standalone="no"?>

<svg
   version="1.1"
   id="svg2"
   viewBox="0 0 1422.5333 906.20001"
   xmlns="http://www.w3.org/2000/svg"
>
  <g
     id="g8"
     transform="matrix(1.3333333,0,0,-1.3333333,0,906.2)">
    <g
       id="g10"
       transform="scale(0.1)">
      <path
         d="M 50.8594,204.949 C 50.8594,91.7617 999.551,0 2169.82,0 3340.1,0 4288.79,91.7617 4288.79,204.949 c 0,113.18 -948.69,204.942 -2118.97,204.942 C 999.551,409.891 50.8594,318.129 50.8594,204.949"
         style="fill:#c1c1c1;fill-opacity:1;fill-rule:nonzero;stroke:none"
         id="path12" />
      <path
         d="M 6422.3,204.949 C 6422.3,91.7617 7370.99,0 8541.26,0 c 1170.28,0 2118.94,91.7617 2118.94,204.949 0,113.18 -948.66,204.942 -2118.94,204.942 -1170.27,0 -2118.96,-91.762 -2118.96,-204.942"
         style="fill:#c1c1c1;fill-opacity:1;fill-rule:nonzero;stroke:none"
         id="path14" />
      <path
         d="m 1983.53,2642.08 -85,1497.64 9.98,0.57 85,-1497.64 -9.98,-0.57"
         style="fill:#000000;fill-opacity:1;fill-rule:nonzero;stroke:none"
         id="path16" />
      <path
         d="m 1941.33,2640.63 -522.5,1407.64 9.37,3.47 522.5,-1407.63 -9.37,-3.48"
         style="fill:#000000;fill-opacity:1;fill-rule:nonzero;stroke:none"
         id="path18" />
      <path
         d="m 2009.69,2686.65 -994.88,1100 7.41,6.71 994.88,-1100.01 -7.41,-6.7"
         style="fill:#000000;fill-opacity:1;fill-rule:nonzero;stroke:none"
         id="path20" />
      <path
         d="m 2065.89,2585.75 -1369.999,845 5.254,8.51 1369.995,-845 -5.25,-8.51"
         style="fill:#000000;fill-opacity:1;fill-rule:nonzero;stroke:none"
         id="path22" />
      <path
         d="m 1811.22,2352.2 -1330.005,688.37 4.601,8.87 1330.004,-688.35 -4.6,-8.89"
         style="fill:#000000;fill-opacity:1;fill-rule:nonzero;stroke:none"
         id="path24" />
      <path
         d="m 1852.53,2285.1 -1490.003,300 1.977,9.81 1489.996,-300 -1.97,-9.81"
         style="fill:#000000;fill-opacity:1;fill-rule:nonzero;stroke:none"
         id="path26" />
      <path
         d="m 364.609,2085.12 -2.187,9.77 1449.998,325 2.19,-9.77 -1450.001,-325"
         style="fill:#000000;fill-opacity:1;fill-rule:nonzero;stroke:none"
         id="path28" />
      <path
         d="m 485.883,1610.6 -4.735,8.81 1330.002,715 4.73,-8.81 -1329.997,-715"
         style="fill:#000000;fill-opacity:1;fill-rule:nonzero;stroke:none"
         id="path30" />
      <path
         d="m 701.324,1210.86 -5.617,8.28 1290.003,875 5.61,-8.28 -1289.996,-875"
         style="fill:#000000;fill-opacity:1;fill-rule:nonzero;stroke:none"
         id="path32" />
      <path
         d="m 1067.25,911.672 -7.47,6.66 1082.62,1214.998 7.47,-6.66 L 1067.25,911.672"
         style="fill:#000000;fill-opacity:1;fill-rule:nonzero;stroke:none"
         id="path34" />
      <path
         d="m 1483.31,658.57 -9.58,2.871 467.5,1564.999 9.58,-2.87 -467.5,-1565"
         style="fill:#000000;fill-opacity:1;fill-rule:nonzero;stroke:none"
         id="path36" />
      <path
         d="m 1951.01,569.719 -9.98,0.57 92.5,1627.501 9.98,-0.57 -92.5,-1627.501"
         style="fill:#000000;fill-opacity:1;fill-rule:nonzero;stroke:none"
         id="path38" />
      <path
         d="m 1983.53,2642.08 -85,1497.64 9.98,0.57 85,-1497.64 -9.98,-0.57"
         style="fill:#000000;fill-opacity:1;fill-rule:nonzero;stroke:none"
         id="path40" />
      <path
         d="m 2330.4,2629.9 -10,0.27 39.62,1499.52 10,-0.27 -39.62,-1499.52"
         style="fill:#000000;fill-opacity:1;fill-rule:nonzero;stroke:none"
         id="path42" />
      <path
         d="m 2372.61,2629.72 -9.47,3.2 479.65,1422.8 9.48,-3.19 -479.66,-1422.81"
         style="fill:#000000;fill-opacity:1;fill-rule:nonzero;stroke:none"
         id="path44" />
      <path
         d="m 2302.9,2673.65 -7.62,6.48 961.13,1129.61 7.61,-6.48 -961.12,-1129.61"
         style="fill:#000000;fill-opacity:1;fill-rule:nonzero;stroke:none"
         id="path46" />
      <path
         d="m 2249.78,2571.1 -5.51,8.34 1343.79,886.09 5.51,-8.35 -1343.79,-886.08"
         style="fill:#000000;fill-opacity:1;fill-rule:nonzero;stroke:none"
         id="path48" />
      <path
         d="m 2511.4,2345.37 -4.87,8.74 1308.56,728.3 4.86,-8.74 -1308.55,-728.3"
         style="fill:#000000;fill-opacity:1;fill-rule:nonzero;stroke:none"
         id="path50" />
      <path
         d="m 2472.13,2277.04 -2.26,9.75 1480.24,344.96 2.26,-9.74 -1480.24,-344.97"
         style="fill:#000000;fill-opacity:1;fill-rule:nonzero;stroke:none"
         id="path52" />
      <path
         d="m 3965.42,2122.19 -1459.17,280.97 1.89,9.82 1459.18,-280.96 -1.9,-9.83"
         style="fill:#000000;fill-opacity:1;fill-rule:nonzero;stroke:none"
         id="path54" />
      <path
         d="m 3858.57,1644.22 -1351.03,674.42 4.46,8.94 1351.04,-674.41 -4.47,-8.95"
         style="fill:#000000;fill-opacity:1;fill-rule:nonzero;stroke:none"
         id="path56" />
      <path
         d="m 3655.33,1238.15 -1315.89,835.55 5.36,8.44 1315.89,-835.55 -5.36,-8.44"
         style="fill:#000000;fill-opacity:1;fill-rule:nonzero;stroke:none"
         id="path58" />
      <path
         d="m 3298.63,928.02 -1118.9,1181.67 7.26,6.88 1118.9,-1181.672 -7.26,-6.878"
         style="fill:#000000;fill-opacity:1;fill-rule:nonzero;stroke:none"
         id="path60" />
      <path
         d="m 2890.42,662.441 -514.65,1550.129 9.49,3.15 514.66,-1550.142 -9.5,-3.137"
         style="fill:#000000;fill-opacity:1;fill-rule:nonzero;stroke:none"
         id="path62" />
      <path
         d="m 2425.63,559.469 -141.72,1623.951 9.96,0.88 141.72,-1623.948 -9.96,-0.883"
         style="fill:#000000;fill-opacity:1;fill-rule:nonzero;stroke:none"
         id="path64" />
      <path
         d="m 2330.4,2629.9 -10,0.27 39.62,1499.52 10,-0.27 -39.62,-1499.52"
         style="fill:#000000;fill-opacity:1;fill-rule:nonzero;stroke:none"
         id="path66" />
      <path
         d="m 8341.43,2642.08 -85,1497.64 9.98,0.57 85,-1497.64 -9.98,-0.57"
         style="fill:#000000;fill-opacity:1;fill-rule:nonzero;stroke:none"
         id="path68" />
      <path
         d="m 8299.23,2640.63 -522.5,1407.64 9.38,3.47 522.5,-1407.63 -9.38,-3.48"
         style="fill:#000000;fill-opacity:1;fill-rule:nonzero;stroke:none"
         id="path70" />
      <path
         d="m 8367.59,2686.65 -994.88,1100 7.42,6.71 994.88,-1100.01 -7.42,-6.7"
         style="fill:#000000;fill-opacity:1;fill-rule:nonzero;stroke:none"
         id="path72" />
      <path
         d="m 8423.79,2585.75 -1370,845 5.26,8.51 1370,-845 -5.26,-8.51"
         style="fill:#000000;fill-opacity:1;fill-rule:nonzero;stroke:none"
         id="path74" />
      <path
         d="m 8169.13,2352.2 -1330,688.37 4.59,8.87 1330,-688.35 -4.59,-8.89"
         style="fill:#000000;fill-opacity:1;fill-rule:nonzero;stroke:none"
         id="path76" />
      <path
         d="m 8210.43,2285.1 -1490,300 1.98,9.81 1490,-300 -1.98,-9.81"
         style="fill:#000000;fill-opacity:1;fill-rule:nonzero;stroke:none"
         id="path78" />
      <path
         d="m 6722.51,2085.12 -2.18,9.77 1450,325 2.18,-9.77 -1450,-325"
         style="fill:#000000;fill-opacity:1;fill-rule:nonzero;stroke:none"
         id="path80" />
      <path
         d="m 6843.78,1610.6 -4.72,8.81 1330,715 4.72,-8.81 -1330,-715"
         style="fill:#000000;fill-opacity:1;fill-rule:nonzero;stroke:none"
         id="path82" />
      <path
         d="m 7059.22,1210.86 -5.6,8.28 1290,875 5.6,-8.28 -1290,-875"
         style="fill:#000000;fill-opacity:1;fill-rule:nonzero;stroke:none"
         id="path84" />
      <path
         d="m 7425.15,911.672 -7.46,6.66 1082.63,1214.998 7.46,-6.66 L 7425.15,911.672"
         style="fill:#000000;fill-opacity:1;fill-rule:nonzero;stroke:none"
         id="path86" />
      <path
         d="m 7841.22,658.57 -9.59,2.871 467.5,1564.999 9.59,-2.87 -467.5,-1565"
         style="fill:#000000;fill-opacity:1;fill-rule:nonzero;stroke:none"
         id="path88" />
      <path
         d="m 8308.91,569.719 -9.98,0.57 92.5,1627.501 9.98,-0.57 -92.5,-1627.501"
         style="fill:#000000;fill-opacity:1;fill-rule:nonzero;stroke:none"
         id="path90" />
      <path
         d="m 8341.43,2642.08 -85,1497.64 9.98,0.57 85,-1497.64 -9.98,-0.57"
         style="fill:#000000;fill-opacity:1;fill-rule:nonzero;stroke:none"
         id="path92" />
      <path
         d="m 8688.31,2629.9 -10,0.27 39.62,1499.52 10,-0.27 -39.62,-1499.52"
         style="fill:#000000;fill-opacity:1;fill-rule:nonzero;stroke:none"
         id="path94" />
      <path
         d="m 8730.52,2629.72 -9.47,3.2 479.66,1422.8 9.47,-3.19 -479.66,-1422.81"
         style="fill:#000000;fill-opacity:1;fill-rule:nonzero;stroke:none"
         id="path96" />
      <path
         d="m 8660.81,2673.65 -7.62,6.48 961.13,1129.61 7.62,-6.48 -961.13,-1129.61"
         style="fill:#000000;fill-opacity:1;fill-rule:nonzero;stroke:none"
         id="path98" />
      <path
         d="m 8607.68,2571.1 -5.51,8.34 1343.8,886.09 5.51,-8.35 -1343.8,-886.08"
         style="fill:#000000;fill-opacity:1;fill-rule:nonzero;stroke:none"
         id="path100" />
      <path
         d="m 8869.31,2345.37 -4.86,8.74 1308.55,728.3 4.9,-8.74 -1308.59,-728.3"
         style="fill:#000000;fill-opacity:1;fill-rule:nonzero;stroke:none"
         id="path102" />
      <path
         d="m 8830.04,2277.04 -2.26,9.75 1480.22,344.96 2.3,-9.74 -1480.26,-344.97"
         style="fill:#000000;fill-opacity:1;fill-rule:nonzero;stroke:none"
         id="path104" />
      <path
         d="m 10323.3,2122.19 -1459.13,280.97 1.89,9.82 1459.14,-280.96 -1.9,-9.83"
         style="fill:#000000;fill-opacity:1;fill-rule:nonzero;stroke:none"
         id="path106" />
      <path
         d="m 10216.5,1644.22 -1351.06,674.42 4.48,8.94 1351.08,-674.41 -4.5,-8.95"
         style="fill:#000000;fill-opacity:1;fill-rule:nonzero;stroke:none"
         id="path108" />
      <path
         d="m 10013.2,1238.15 -1315.85,835.55 5.35,8.44 1315.9,-835.55 -5.4,-8.44"
         style="fill:#000000;fill-opacity:1;fill-rule:nonzero;stroke:none"
         id="path110" />
      <path
         d="m 9656.54,928.02 -1118.91,1181.67 7.27,6.88 1118.9,-1181.672 -7.26,-6.878"
         style="fill:#000000;fill-opacity:1;fill-rule:nonzero;stroke:none"
         id="path112" />
      <path
         d="m 9248.33,662.441 -514.65,1550.129 9.49,3.15 514.66,-1550.142 -9.5,-3.137"
         style="fill:#000000;fill-opacity:1;fill-rule:nonzero;stroke:none"
         id="path114" />
      <path
         d="m 8783.54,559.469 -141.72,1623.951 9.96,0.88 141.72,-1623.948 -9.96,-0.883"
         style="fill:#000000;fill-opacity:1;fill-rule:nonzero;stroke:none"
         id="path116" />
      <path
         d="m 8688.31,2629.9 -10,0.27 39.62,1499.52 10,-0.27 -39.62,-1499.52"
         style="fill:#000000;fill-opacity:1;fill-rule:nonzero;stroke:none"
         id="path118" />
      <path
         d="m 3113.72,2273.32 c -1.18,1.68 -117.89,168.66 -147.59,212.08 -17.32,25.34 -128.25,28.99 -201.49,23.49 l -2.25,29.92 c 32.34,2.4 195.31,12.06 228.51,-36.47 29.61,-43.3 146.23,-210.15 147.41,-211.83 l -24.59,-17.19"
         style="fill:#000000;fill-opacity:1;fill-rule:nonzero;stroke:none"
         id="path120" />
      <path
         d="m 7687.08,4485.57 c -38.41,124.34 54.71,447.19 174.82,606.06 111.64,147.67 121.69,521.61 111.85,575.69 -5.63,30.97 -25.5,64.36 -40.15,85.71 l -10.87,-32.36 c -6.97,-18.01 -167.9,-427.43 -397.98,-568.45 l -15.68,25.57 c 221.53,135.79 383.85,548.92 385.46,553.08 l 28.31,84.37 17.19,-20.63 c 2.15,-2.58 52.65,-63.71 63.24,-121.92 10.58,-58.23 1.54,-441.77 -117.44,-599.16 -113.46,-150.07 -205.65,-463.98 -170.07,-579.1 l -28.68,-8.86"
         style="fill:#000000;fill-opacity:1;fill-rule:nonzero;stroke:none"
         id="path122" />
      <path
         d="M 2146.13,4079.77 C 1196,4079.77 423.008,3306.78 423.008,2356.64 423.008,1406.51 1196,633.52 2146.13,633.52 c 950.14,0 1723.13,772.99 1723.13,1723.12 0,950.14 -772.99,1723.13 -1723.13,1723.13 z m 0,-3869.258 c -573.25,0 -1112.19,223.23 -1517.54,628.59 C 223.238,1244.45 0,1783.39 0,2356.64 c 0,573.26 223.238,1112.2 628.59,1517.55 405.35,405.35 944.29,628.59 1517.54,628.59 573.26,0 1112.2,-223.24 1517.55,-628.59 405.35,-405.35 628.59,-944.29 628.59,-1517.55 0,-573.25 -223.24,-1112.19 -628.59,-1517.538 -405.35,-405.36 -944.29,-628.59 -1517.55,-628.59"
         style="fill:#000000;fill-opacity:1;fill-rule:nonzero;stroke:none"
         id="path124" />
      <path
         d="m 8522.86,4079.77 c -950.14,0 -1723.13,-772.99 -1723.13,-1723.13 0,-950.13 772.99,-1723.12 1723.13,-1723.12 950.13,0 1723.14,772.99 1723.14,1723.12 0,950.14 -773.01,1723.13 -1723.14,1723.13 z m 0,-3869.258 c -573.26,0 -1112.2,223.23 -1517.55,628.59 -405.35,405.348 -628.59,944.288 -628.59,1517.538 0,573.26 223.24,1112.2 628.59,1517.55 405.35,405.35 944.29,628.59 1517.55,628.59 573.25,0 1112.19,-223.24 1517.54,-628.59 405.4,-405.35 628.6,-944.29 628.6,-1517.55 0,-573.25 -223.2,-1112.19 -628.6,-1517.538 -405.35,-405.36 -944.29,-628.59 -1517.54,-628.59"
         style="fill:#000000;fill-opacity:1;fill-rule:nonzero;stroke:none"
         id="path126" />
      <path
         d="m 8522.86,2757.74 c -221.17,0 -401.1,-179.93 -401.1,-401.1 0,-221.16 179.93,-401.09 401.1,-401.09 221.16,0 401.09,179.93 401.09,401.09 0,221.17 -179.93,401.1 -401.09,401.1 z m 0,-882.19 c -265.28,0 -481.1,215.82 -481.1,481.09 0,265.29 215.82,481.1 481.1,481.1 265.27,0 481.09,-215.81 481.09,-481.1 0,-265.27 -215.82,-481.09 -481.09,-481.09"
         style="fill:#000000;fill-opacity:1;fill-rule:nonzero;stroke:none"
         id="path128" />
      <path
         d="m 8155.28,2356.64 c 0,-203 164.57,-367.57 367.58,-367.57 203,0 367.57,164.57 367.57,367.57 0,203.02 -164.57,367.59 -367.57,367.59 -203.01,0 -367.58,-164.57 -367.58,-367.59"
         style="fill:#000000;fill-opacity:1;fill-rule:nonzero;stroke:none"
         id="path130" />
      <path
         d="m 5732.08,1901.19 c 0,-62.49 50.64,-113.13 113.12,-113.13 62.48,0 113.13,50.64 113.13,113.13 0,62.48 -50.65,113.12 -113.13,113.12 -62.48,0 -113.12,-50.64 -113.12,-113.12"
         style="fill:#000000;fill-opacity:1;fill-rule:nonzero;stroke:none"
         id="path132" />
      <path
         d="m 8095.18,2515 c 0,0 -111.67,-13.33 -123.33,-13.33 -11.67,0 -63.34,16.66 -63.34,51.66 0,35 80,89.04 80,89.04 l 43.34,47.63 -3.34,120 60,63.34 75.87,144.97 125.01,-287.38 L 8095.18,2515"
         style="fill:#000000;fill-opacity:1;fill-rule:nonzero;stroke:none"
         id="path134" />
      <path
         d="m 2471.86,2424.42 -1.71,39.96 2314.18,98.93 1.71,-39.96 -2314.18,-98.93"
         style="fill:#000000;fill-opacity:1;fill-rule:nonzero;stroke:none"
         id="path136" />
      <path
         d="m 4738.51,1232.4 -2671.07,144.3 2.15,39.94 2671.07,-144.3 -2.15,-39.94"
         style="fill:#000000;fill-opacity:1;fill-rule:nonzero;stroke:none"
         id="path138" />
      <path
         d="m 2146.13,2812.88 c -251.56,0 -456.23,-204.66 -456.23,-456.24 0,-251.56 204.67,-456.23 456.23,-456.23 251.57,0 456.24,204.67 456.24,456.23 0,251.58 -204.67,456.24 -456.24,456.24 z m 0,-992.47 c -295.68,0 -536.23,240.56 -536.23,536.23 0,295.69 240.55,536.24 536.23,536.24 295.69,0 536.24,-240.55 536.24,-536.24 0,-295.67 -240.55,-536.23 -536.24,-536.23"
         style="fill:#000000;fill-opacity:1;fill-rule:nonzero;stroke:none"
         id="path140" />
      <path
         d="m 1751.47,2356.64 c 0,-217.95 176.7,-394.65 394.66,-394.65 217.97,0 394.67,176.7 394.67,394.65 0,217.97 -176.7,394.67 -394.67,394.67 -217.96,0 -394.66,-176.7 -394.66,-394.67"
         style="fill:#000000;fill-opacity:1;fill-rule:nonzero;stroke:none"
         id="path142" />
      <path
         d="m 1918.52,1450 c 0,7.5 7.5,40 45,42.5 l 49.87,-60 c 0,0 -94.87,10 -94.87,17.5 z m 435,615 c -40,50 -110,57.5 -110,57.5 l -85,5 v 37.5 l -77.5,-15 -42.5,47.5 c 0,0 -40,5 -55,0 -15,-5 -57.5,-22.63 -57.5,-22.63 L 1813.52,2105 h -37.5 l -130,-57.5 v -220 h 115 l 5,-35 h 20 27.5 l 7.5,-60 h 42.5 v 30 h 92.5 c 0,0 7.5,27.5 20,35 0,0 30,-30 55,-30 25,0 140,2.5 140,2.5 l -125,-37.5 c 0,0 -22.5,-10 -22.5,-20 0,0 -52.5,-7.5 -65,-27.5 -12.5,-20 -12.5,-20 -12.5,-20 0,0 -40,-25 -37.5,-42.5 2.5,-17.5 0,-62.5 0,-62.5 0,0 -5,-27.5 0,-47.5 l -85,-47.5 c 0,0 -10,-42.5 60,-55 70,-12.5 212.5,-37.5 212.5,-37.5 l 17.5,42.5 h 32.61 c 0,0 9.89,45 24.89,45 15,0 37.5,0 37.5,0 0,0 -15,32.5 0,45 15,12.5 37.5,22.5 37.5,22.5 l -27.5,27.5 c 0,0 102.5,107.23 135,231.12 32.5,123.88 40,228.88 0,278.88"
         style="fill:#000000;fill-opacity:1;fill-rule:nonzero;stroke:none"
         id="path144" />
      <path
         d="m 2496.85,2606.67 v 60 c 0,0 -53.33,72.62 -53.33,84.64 0,12.02 26.66,52.03 26.66,52.03 l 50,-52.03 v 52.03 h 90 v -36.67 h 23.34 c 0,0 3.33,-86.67 36.66,-116.67 33.34,-30 90,-53.33 103.34,-60 13.33,-6.67 20,-66.67 20,-66.67 0,0 -53.34,-26.66 -93.34,-40 -40,-13.33 -136.66,46.67 -136.66,46.67 l -50.35,-28.03 -69.65,68.03 53.33,36.67"
         style="fill:#000000;fill-opacity:1;fill-rule:nonzero;stroke:none"
         id="path146" />
      <path
         d="m 2158.52,623.332 v 223.34 h -12.39 v 46.66 h 12.39 V 940 h 26.66 v -45.621 h 8.34 V 847.5 l -8.13,-0.621 4.38,-223.547 h -31.25"
         style="fill:#000000;fill-opacity:1;fill-rule:nonzero;stroke:none"
         id="path148" />
      <path
         d="m 8492.74,598.332 v 223.34 h -12.38 v 46.66 h 12.38 V 915 h 26.66 v -45.621 h 8.34 V 822.5 l -8.13,-0.621 4.38,-223.547 h -31.25"
         style="fill:#000000;fill-opacity:1;fill-rule:nonzero;stroke:none"
         id="path150" />
      <path
         d="m 7529.76,4890 c 23.75,-57.5 42.5,-40 42.5,-40 l 64.16,2.53 -118.25,132.15 c -2.83,-27.13 -1.64,-62.64 11.59,-94.68"
         style="fill:#000000;fill-opacity:1;fill-rule:nonzero;stroke:none"
         id="path152" />
      <path
         d="m 7086.42,5467.15 -56.24,62.85 c -5.72,-4.03 -12.28,-8.01 -19.52,-11.94 2.07,-13.24 11.56,-30.02 19.52,-41.39 4.61,-6.58 28.75,-9 56.24,-9.52"
         style="fill:#000000;fill-opacity:1;fill-rule:nonzero;stroke:none"
         id="path154" />
      <path
         d="m 7120.18,4816.67 c -56.67,-63.33 -2335,-2493.56 -2335,-2493.56 l -31.66,-41.19 -756.67,2581.42 c 0,0 -3.33,56.66 20,83.33 23.33,26.67 123.33,136.67 123.33,136.67 0,0 9.2,16.66 101.27,23.33 92.07,6.67 2725.4,33.33 2725.4,33.33 0,0 86.66,3.34 116.66,-56.66 30,-60 66.67,-140 66.67,-140 0,0 26.67,-63.34 -30,-126.67 z M 2247.02,2399.32 c -91.5,44.32 -38.5,82.09 -38.5,82.09 0,0 1500,1728.59 1550,1783.59 50,55 80,26.28 80,26.28 L 4080.77,3505 c 472.96,-802.91 207.75,-1011.13 207.75,-1011.13 l 79.56,-337.47 z m 6326.49,-4.32 -70,180.27 -690,1821.4 -73.33,206.67 -83.33,250 c 0,0 -106.67,330 -110,383.33 -3.34,53.33 -14.38,89.87 -29.94,124.56 -15.55,34.69 -116.73,185.44 -116.73,185.44 l -370,-16.67 c -136.16,-73.94 -543.33,-140 -543.33,-140 l -2633.33,-133.33 -303.34,-13.33 246.67,-766.67 c -50,-3.33 -113.33,-76.67 -113.33,-76.67 0,0 -1510,-1836.66 -1550,-1883.33 -40,-46.67 -73.34,-117.35 -73.34,-117.35 l -46.79,-199.59 c 29.88,2.22 67.63,-49.73 67.63,-49.73 l 65.11,12.61 100.89,47.12 2307.82,-423.61 7.95,62.57 310.73,-38.69 2339.99,2465 c 185,107.5 292.91,-15 292.91,-15 175.42,-162.5 907.09,-1910.26 907.09,-1910.26 0,0 42.02,-64.74 109.35,-39.74 67.32,25 50.65,85 50.65,85"
         style="fill:#f60000;fill-opacity:1;fill-rule:nonzero;stroke:none"
         id="path156" />
      <path
         d="m 3614.77,6623.75 c -17.5,-13.75 -51.25,-45 -105,-56.25 -53.75,-11.25 -142.5,-17.5 -142.5,-17.5 l -5,17.5 -75,-2.5 -6.25,-26.25 h -66.25 l -20,13.75 -65,-3.75 -23.75,-28.75 h -92.5 c 0,0 -33.75,11.25 -47.5,25 -13.75,13.75 -85,60 -85,60 0,0 51.25,-5 115,0 63.75,5 208.75,43.75 247.5,52.5 38.75,8.75 426.25,31.25 481.25,26.25 0,0 -92.5,-46.25 -110,-60 z m 568.75,81.25 c 0,0 -82.5,87.23 -392.5,67.5 -310,-19.72 -787.5,-20 -957.51,5.01 -64.11,9.42 -306.46,26.17 -361.29,15.64 -19.37,-3.72 -54.57,-13.58 -49.72,-39.77 3.56,-19.17 38.91,-33.38 56.02,-33.38 20,0 147.5,-37.5 147.5,-37.5 0,0 40,-42.5 62.5,-62.5 22.5,-20 72.5,-17.5 120,-32.5 47.5,-15 105,-70 122.5,-92.5 17.5,-22.5 105,-42.5 105,-42.5 h 77.5 c 0,0 17.5,-67.5 30,-90 12.5,-22.5 67.5,-92.5 132.5,-207.5 65,-115 307.5,-910 307.5,-910 l 270,11.67 -327.5,1093.33 c 0,0 -27.5,100 -32.5,107.5 -5,7.5 -42.5,30 -42.5,30 0,0 62.5,5 102.5,20 40,15 102.5,70 142.5,105 40,35 182.5,27.5 227.5,30 45,2.5 37.5,-25 37.5,-25 137.5,7.5 195,32.5 195,32.5 v 25 c 42.5,5 27.5,30 27.5,30"
         style="fill:#000000;fill-opacity:1;fill-rule:nonzero;stroke:none"
         id="path158" />
      <path
         d="m 7400.16,5546.71 c -76.65,-48.13 -357.42,-91.29 -369.98,-70.04 -12.56,21.25 -10,15 0,53.33 0,0 -25,11.67 -33.34,33.34 -13.83,36.01 -6.76,87.98 -6.79,125.83 -0.05,58.2 24.8,83.25 80.23,103.08 151.78,54.33 291.04,78.16 451.07,82.34 91.27,2.39 182.55,4.74 273.83,7.09 0,0 33.33,26.66 61.69,35 97.74,28.68 221.72,3.37 319.86,-5.14 151.23,-13.12 302.65,-24 454.19,-32.63 65.85,-3.75 121.16,23.21 159.83,76.18 35.32,48.39 38.12,144.37 110.08,150.3 73.1,6.01 190.42,-24.21 246.02,-72.05 0,0 30,-11.66 0,-53.34 -30,-41.66 -131.67,-256.66 -138.34,-275 -6.66,-18.33 -21.66,-68.33 -23.33,-86.66 -1.67,-18.34 -8.33,-290 -31.67,-375 -23.32,-84.96 -25,-149.93 -21.67,-176.63 3.69,-29.63 29.97,-47.66 34.32,-76.99 2.51,-16.94 -8.2,-51.42 -30.24,-44.86 -8.94,2.66 -22.04,40.47 -25.92,48.26 -17.65,35.46 -44.86,79.57 -46.49,120.22 -1.66,41.66 8.34,90 8.33,90 -26.87,-4.42 -54.87,-11.97 -82.01,-13.47 -25.6,-1.4 -25.62,-8.55 -39.94,15.02 -10.23,16.86 -16,146.33 1.96,156.78 0,0 91.66,53.33 111.66,66.67 20,13.33 23.34,75.22 23.34,92.61 0,17.39 18.33,84.05 -16.67,114.05 -35,30 -68.33,31.67 -68.34,31.67 -11.08,-17.3 -24.91,-53.42 -42.18,-64.22 -32.19,-20.17 -120.04,-10.11 -159.05,-14.66 -20.17,-2.36 -42.74,-6.38 -54.26,-23.11 -7.33,-10.65 -8.44,-24.25 -9.37,-37.15 -3.73,-52.2 -8.15,-104.64 -20.97,-155.37 -46.56,-184.26 -201.05,-326.38 -374.59,-403.87 -173.52,-77.5 -365.99,-99.73 -555.22,-117.26 -18.98,-1.75 -35.72,0.18 -50.24,13.78 -19.52,18.29 -31.64,48.34 -31.96,74.88 -0.34,28.82 12.51,52.96 30.09,74.86 31.37,39.1 89.21,39.96 139.32,41.32 135.93,3.68 271.17,36.29 393.16,96.37 77.36,38.12 150.65,88.41 202,157.7 89.35,120.56 88.38,271.64 -35.8,365 -92.87,69.81 -504.3,52.96 -596.36,33.58 -98.94,-20.84 -183.56,-71.33 -273.11,-115.69 10.6,-16.64 23.03,-32.12 36.86,-46.12"
         style="fill:#000000;fill-opacity:1;fill-rule:nonzero;stroke:none"
         id="path160" />
      <path
         d="m 4408.52,3065 -212.5,-52.55 -105,-77.45 c 0,0 -15,-22.5 0,-52.5 15,-30 45,-154.73 47.5,-168.61 l 202.5,37.42 c 0,0 7.5,-18.54 37.5,-37.42 0,0 -5.58,-96.18 -49.04,-190.04 l 221.54,153.04 -142.5,388.11"
         style="fill:#000000;fill-opacity:1;fill-rule:nonzero;stroke:none"
         id="path162" />
      <path
         d="m 4739.58,2477.3 c -317.67,0 -576.12,-258.44 -576.12,-576.11 0,-317.68 258.45,-576.12 576.12,-576.12 317.68,0 576.12,258.44 576.12,576.12 0,317.67 -258.44,576.11 -576.12,576.11 z m 0,-1245.33 c -369,0 -669.21,300.21 -669.21,669.22 0,369 300.21,669.21 669.21,669.21 369.01,0 669.22,-300.21 669.22,-669.21 0,-369.01 -300.21,-669.22 -669.22,-669.22"
         style="fill:#000000;fill-opacity:1;fill-rule:nonzero;stroke:none"
         id="path164" />
      <path
         d="m 4739.58,2352.77 c -249,0 -451.58,-202.58 -451.58,-451.58 0,-249.01 202.58,-451.59 451.58,-451.59 249.01,0 451.59,202.58 451.59,451.59 0,249 -202.58,451.58 -451.59,451.58 z m 0,-996.27 c -300.34,0 -544.68,244.34 -544.68,544.69 0,300.34 244.34,544.68 544.68,544.68 300.35,0 544.69,-244.34 544.69,-544.68 0,-300.35 -244.34,-544.69 -544.69,-544.69"
         style="fill:#000000;fill-opacity:1;fill-rule:nonzero;stroke:none"
         id="path166" />
      <path
         d="m 4428.25,1901.19 c 0,-171.95 139.39,-311.34 311.33,-311.34 171.95,0 311.34,139.39 311.34,311.34 0,171.94 -139.39,311.33 -311.34,311.33 -171.94,0 -311.33,-139.39 -311.33,-311.33"
         style="fill:#000000;fill-opacity:1;fill-rule:nonzero;stroke:none"
         id="path168" />
      <path
         d="m 4739.58,2040 c 0,0 872.31,-61.38 1105.62,-25.69 v -226.25 c 0,0 -889.55,-3.06 -1105.62,-43.06 v 295"
         style="fill:#000000;fill-opacity:1;fill-rule:nonzero;stroke:none"
         id="path170" />
    </g>
  </g>
</svg>
