<svg viewBox="0 0 1422.533 906.2" xmlns="http://www.w3.org/2000/svg">
  <path d="M50.86 204.949C50.86 91.762 999.55 0 2169.82 0 3340.1 0 4288.79 91.762 4288.79 204.949c0 113.18-948.69 204.942-2118.97 204.942-1170.269 0-2118.96-91.762-2118.96-204.942m6371.44 0C6422.3 91.762 7370.99 0 8541.26 0c1170.28 0 2118.94 91.762 2118.94 204.949 0 113.18-948.66 204.942-2118.94 204.942-1170.27 0-2118.96-91.762-2118.96-204.942" style="fill:#c1c1c1;fill-opacity:1;fill-rule:nonzero;stroke:none" transform="matrix(.13333 0 0 -.13333 0 906.2)"/>
  <path d="m1983.53 2642.08-85 1497.64 9.98.57 85-1497.64zm-42.2-1.45-522.5 1407.64 9.37 3.47 522.5-1407.63z" style="fill:#000;fill-opacity:1;fill-rule:nonzero;stroke:none" transform="matrix(.13333 0 0 -.13333 0 906.2)"/>
  <path d="m2009.69 2686.65-994.88 1100 7.41 6.71 994.88-1100.01zm56.2-100.9-1369.999 845 5.254 8.51 1369.995-845zm-254.67-233.55L481.215 3040.57l4.601 8.87 1330.004-688.35zm41.31-67.1-1490.003 300 1.977 9.81 1489.996-300z" style="fill:#000;fill-opacity:1;fill-rule:nonzero;stroke:none" transform="matrix(.13333 0 0 -.13333 0 906.2)"/>
  <path d="m364.609 2085.12-2.187 9.77 1449.998 325 2.19-9.77zm121.274-474.52-4.735 8.81 1330.002 715 4.73-8.81zm215.441-399.74-5.617 8.28 1290.003 875 5.61-8.28zm365.926-299.188-7.47 6.66L2142.4 2133.33l7.47-6.66z" style="fill:#000;fill-opacity:1;fill-rule:nonzero;stroke:none" transform="matrix(.13333 0 0 -.13333 0 906.2)"/>
  <path d="m1483.31 658.57-9.58 2.871 467.5 1564.999 9.58-2.87zm467.7-88.851-9.98.57 92.5 1627.501 9.98-.57zm32.52 2072.361-85 1497.64 9.98.57 85-1497.64zm346.87-12.18-10 .27 39.62 1499.52 10-.27zm42.21-.18-9.47 3.2 479.65 1422.8 9.48-3.19z" style="fill:#000;fill-opacity:1;fill-rule:nonzero;stroke:none" transform="matrix(.13333 0 0 -.13333 0 906.2)"/>
  <path d="m2302.9 2673.65-7.62 6.48 961.13 1129.61 7.61-6.48zm-53.12-102.55-5.51 8.34 1343.79 886.09 5.51-8.35zm261.62-225.73-4.87 8.74 1308.56 728.3 4.86-8.74zm-39.27-68.33-2.26 9.75 1480.24 344.96 2.26-9.74z" style="fill:#000;fill-opacity:1;fill-rule:nonzero;stroke:none" transform="matrix(.13333 0 0 -.13333 0 906.2)"/>
  <path d="m3965.42 2122.19-1459.17 280.97 1.89 9.82 1459.18-280.96zm-106.85-477.97-1351.03 674.42 4.46 8.94 1351.04-674.41zm-203.24-406.07L2339.44 2073.7l5.36 8.44 1315.89-835.55zm-356.7-310.13-1118.9 1181.67 7.26 6.88 1118.9-1181.672z" style="fill:#000;fill-opacity:1;fill-rule:nonzero;stroke:none" transform="matrix(.13333 0 0 -.13333 0 906.2)"/>
  <path d="M2890.42 662.441 2375.77 2212.57l9.49 3.15 514.66-1550.142zm-464.79-102.972L2283.91 2183.42l9.96.88 141.72-1623.948zM2330.4 2629.9l-10 .27 39.62 1499.52 10-.27zm6011.03 12.18-85 1497.64 9.98.57 85-1497.64zm-42.2-1.45-522.5 1407.64 9.38 3.47 522.5-1407.63z" style="fill:#000;fill-opacity:1;fill-rule:nonzero;stroke:none" transform="matrix(.13333 0 0 -.13333 0 906.2)"/>
  <path d="m8367.59 2686.65-994.88 1100 7.42 6.71 994.88-1100.01zm56.2-100.9-1370 845 5.26 8.51 1370-845zm-254.66-233.55-1330 688.37 4.59 8.87 1330-688.35zm41.3-67.1-1490 300 1.98 9.81 1490-300z" style="fill:#000;fill-opacity:1;fill-rule:nonzero;stroke:none" transform="matrix(.13333 0 0 -.13333 0 906.2)"/>
  <path d="m6722.51 2085.12-2.18 9.77 1450 325 2.18-9.77zm121.27-474.52-4.72 8.81 1330 715 4.72-8.81zm215.44-399.74-5.6 8.28 1290 875 5.6-8.28zm365.93-299.188-7.46 6.66L8500.32 2133.33l7.46-6.66z" style="fill:#000;fill-opacity:1;fill-rule:nonzero;stroke:none" transform="matrix(.13333 0 0 -.13333 0 906.2)"/>
  <path d="m7841.22 658.57-9.59 2.871 467.5 1564.999 9.59-2.87zm467.69-88.851-9.98.57 92.5 1627.501 9.98-.57zm32.52 2072.361-85 1497.64 9.98.57 85-1497.64zm346.88-12.18-10 .27 39.62 1499.52 10-.27zm42.21-.18-9.47 3.2 479.66 1422.8 9.47-3.19z" style="fill:#000;fill-opacity:1;fill-rule:nonzero;stroke:none" transform="matrix(.13333 0 0 -.13333 0 906.2)"/>
  <path d="m8660.81 2673.65-7.62 6.48 961.13 1129.61 7.62-6.48zm-53.13-102.55-5.51 8.34 1343.8 886.09 5.51-8.35zm261.63-225.73-4.86 8.74 1308.55 728.3 4.9-8.74zm-39.27-68.33-2.26 9.75L10308 2631.75l2.3-9.74z" style="fill:#000;fill-opacity:1;fill-rule:nonzero;stroke:none" transform="matrix(.13333 0 0 -.13333 0 906.2)"/>
  <path d="m10323.3 2122.19-1459.13 280.97 1.89 9.82 1459.14-280.96zm-106.8-477.97-1351.06 674.42 4.48 8.94L10221 1653.17zm-203.3-406.07L8697.35 2073.7l5.35 8.44 1315.9-835.55zm-356.66-310.13L8537.63 2109.69l7.27 6.88L9663.8 934.898z" style="fill:#000;fill-opacity:1;fill-rule:nonzero;stroke:none" transform="matrix(.13333 0 0 -.13333 0 906.2)"/>
  <path d="M9248.33 662.441 8733.68 2212.57l9.49 3.15 514.66-1550.142zm-464.79-102.972L8641.82 2183.42l9.96.88L8793.5 560.352zM8688.31 2629.9l-10 .27 39.62 1499.52 10-.27zm-5574.59-356.58c-1.18 1.68-117.89 168.66-147.59 212.08-17.32 25.34-128.25 28.99-201.49 23.49l-2.25 29.92c32.34 2.4 195.31 12.06 228.51-36.47 29.61-43.3 146.23-210.15 147.41-211.83zm4573.36 2212.25c-38.41 124.34 54.71 447.19 174.82 606.06 111.64 147.67 121.69 521.61 111.85 575.69-5.63 30.97-25.5 64.36-40.15 85.71l-10.87-32.36c-6.97-18.01-167.9-427.43-397.98-568.45l-15.68 25.57c221.53 135.79 383.85 548.92 385.46 553.08l28.31 84.37 17.19-20.63c2.15-2.58 52.65-63.71 63.24-121.92 10.58-58.23 1.54-441.77-117.44-599.16-113.46-150.07-205.65-463.98-170.07-579.1z" style="fill:#000;fill-opacity:1;fill-rule:nonzero;stroke:none" transform="matrix(.13333 0 0 -.13333 0 906.2)"/>
  <path d="M2146.13 4079.77c-950.13 0-1723.122-772.99-1723.122-1723.13 0-950.13 772.992-1723.12 1723.122-1723.12 950.14 0 1723.13 772.99 1723.13 1723.12 0 950.14-772.99 1723.13-1723.13 1723.13m0-3869.258c-573.25 0-1112.19 223.23-1517.54 628.59C223.238 1244.45 0 1783.39 0 2356.64c0 573.26 223.238 1112.2 628.59 1517.55 405.35 405.35 944.29 628.59 1517.54 628.59 573.26 0 1112.2-223.24 1517.55-628.59s628.59-944.29 628.59-1517.55c0-573.25-223.24-1112.19-628.59-1517.538-405.35-405.36-944.29-628.59-1517.55-628.59M8522.86 4079.77c-950.14 0-1723.13-772.99-1723.13-1723.13 0-950.13 772.99-1723.12 1723.13-1723.12 950.13 0 1723.14 772.99 1723.14 1723.12 0 950.14-773.01 1723.13-1723.14 1723.13m0-3869.258c-573.26 0-1112.2 223.23-1517.55 628.59-405.35 405.348-628.59 944.288-628.59 1517.538 0 573.26 223.24 1112.2 628.59 1517.55s944.29 628.59 1517.55 628.59c573.25 0 1112.19-223.24 1517.54-628.59 405.4-405.35 628.6-944.29 628.6-1517.55 0-573.25-223.2-1112.19-628.6-1517.538-405.35-405.36-944.29-628.59-1517.54-628.59" style="fill:#000;fill-opacity:1;fill-rule:nonzero;stroke:none" transform="matrix(.13333 0 0 -.13333 0 906.2)"/>
  <path d="M8522.86 2757.74c-221.17 0-401.1-179.93-401.1-401.1 0-221.16 179.93-401.09 401.1-401.09 221.16 0 401.09 179.93 401.09 401.09 0 221.17-179.93 401.1-401.09 401.1m0-882.19c-265.28 0-481.1 215.82-481.1 481.09 0 265.29 215.82 481.1 481.1 481.1 265.27 0 481.09-215.81 481.09-481.1 0-265.27-215.82-481.09-481.09-481.09" style="fill:#000;fill-opacity:1;fill-rule:nonzero;stroke:none" transform="matrix(.13333 0 0 -.13333 0 906.2)"/>
  <path d="M8155.28 2356.64c0-203 164.57-367.57 367.58-367.57 203 0 367.57 164.57 367.57 367.57 0 203.02-164.57 367.59-367.57 367.59-203.01 0-367.58-164.57-367.58-367.59m-2423.2-455.45c0-62.49 50.64-113.13 113.12-113.13s113.13 50.64 113.13 113.13c0 62.48-50.65 113.12-113.13 113.12s-113.12-50.64-113.12-113.12M8095.18 2515s-111.67-13.33-123.33-13.33c-11.67 0-63.34 16.66-63.34 51.66s80 89.04 80 89.04l43.34 47.63-3.34 120 60 63.34 75.87 144.97 125.01-287.38zm-5623.32-90.58-1.71 39.96 2314.18 98.93 1.71-39.96zM4738.51 1232.4l-2671.07 144.3 2.15 39.94 2671.07-144.3z" style="fill:#000;fill-opacity:1;fill-rule:nonzero;stroke:none" transform="matrix(.13333 0 0 -.13333 0 906.2)"/>
  <path d="M2146.13 2812.88c-251.56 0-456.23-204.66-456.23-456.24 0-251.56 204.67-456.23 456.23-456.23 251.57 0 456.24 204.67 456.24 456.23 0 251.58-204.67 456.24-456.24 456.24m0-992.47c-295.68 0-536.23 240.56-536.23 536.23 0 295.69 240.55 536.24 536.23 536.24 295.69 0 536.24-240.55 536.24-536.24 0-295.67-240.55-536.23-536.24-536.23" style="fill:#000;fill-opacity:1;fill-rule:nonzero;stroke:none" transform="matrix(.13333 0 0 -.13333 0 906.2)"/>
  <path d="M1751.47 2356.64c0-217.95 176.7-394.65 394.66-394.65 217.97 0 394.67 176.7 394.67 394.65 0 217.97-176.7 394.67-394.67 394.67-217.96 0-394.66-176.7-394.66-394.67" style="fill:#000;fill-opacity:1;fill-rule:nonzero;stroke:none" transform="matrix(.13333 0 0 -.13333 0 906.2)"/>
  <path d="M1918.52 1450c0 7.5 7.5 40 45 42.5l49.87-60s-94.87 10-94.87 17.5m435 615c-40 50-110 57.5-110 57.5l-85 5v37.5l-77.5-15-42.5 47.5s-40 5-55 0-57.5-22.63-57.5-22.63l-112.5-69.87h-37.5l-130-57.5v-220h115l5-35h47.5l7.5-60h42.5v30h92.5s7.5 27.5 20 35c0 0 30-30 55-30s140 2.5 140 2.5l-125-37.5s-22.5-10-22.5-20c0 0-52.5-7.5-65-27.5l-12.5-20s-40-25-37.5-42.5 0-62.5 0-62.5-5-27.5 0-47.5l-85-47.5s-10-42.5 60-55 212.5-37.5 212.5-37.5l17.5 42.5h32.61s9.89 45 24.89 45h37.5s-15 32.5 0 45 37.5 22.5 37.5 22.5l-27.5 27.5s102.5 107.23 135 231.12c32.5 123.88 40 228.88 0 278.88m143.33 541.67v60s-53.33 72.62-53.33 84.64 26.66 52.03 26.66 52.03l50-52.03v52.03h90v-36.67h23.34s3.33-86.67 36.66-116.67c33.34-30 90-53.33 103.34-60 13.33-6.67 20-66.67 20-66.67s-53.34-26.66-93.34-40c-40-13.33-136.66 46.67-136.66 46.67l-50.35-28.03-69.65 68.03zM2158.52 623.332v223.34h-12.39v46.66h12.39V940h26.66v-45.621h8.34V847.5l-8.13-.621 4.38-223.547zm6334.22-25v223.34h-12.38v46.66h12.38V915h26.66v-45.621h8.34V822.5l-8.13-.621 4.38-223.547zM7529.76 4890c23.75-57.5 42.5-40 42.5-40l64.16 2.53-118.25 132.15c-2.83-27.13-1.64-62.64 11.59-94.68m-443.34 577.15-56.24 62.85c-5.72-4.03-12.28-8.01-19.52-11.94 2.07-13.24 11.56-30.02 19.52-41.39 4.61-6.58 28.75-9 56.24-9.52" style="fill:#000;fill-opacity:1;fill-rule:nonzero;stroke:none" transform="matrix(.13333 0 0 -.13333 0 906.2)"/>
  <path d="M7120.18 4816.67c-56.67-63.33-2335-2493.56-2335-2493.56l-31.66-41.19-756.67 2581.42s-3.33 56.66 20 83.33 123.33 136.67 123.33 136.67 9.2 16.66 101.27 23.33 2725.4 33.33 2725.4 33.33 86.66 3.34 116.66-56.66 66.67-140 66.67-140 26.67-63.34-30-126.67M2247.02 2399.32c-91.5 44.32-38.5 82.09-38.5 82.09s1500 1728.59 1550 1783.59 80 26.28 80 26.28L4080.77 3505c472.96-802.91 207.75-1011.13 207.75-1011.13l79.56-337.47zm6326.49-4.32-70 180.27-690 1821.4-73.33 206.67-83.33 250s-106.67 330-110 383.33c-3.34 53.33-14.38 89.87-29.94 124.56-15.55 34.69-116.73 185.44-116.73 185.44l-370-16.67c-136.16-73.94-543.33-140-543.33-140l-2633.33-133.33-303.34-13.33 246.67-766.67c-50-3.33-113.33-76.67-113.33-76.67s-1510-1836.66-1550-1883.33-73.34-117.35-73.34-117.35l-46.79-199.59c29.88 2.22 67.63-49.73 67.63-49.73l65.11 12.61 100.89 47.12 2307.82-423.61 7.95 62.57 310.73-38.69 2339.99 2465c185 107.5 292.91-15 292.91-15 175.42-162.5 907.09-1910.26 907.09-1910.26s42.02-64.74 109.35-39.74c67.32 25 50.65 85 50.65 85" style="fill:#f60000;fill-opacity:1;fill-rule:nonzero;stroke:none" transform="matrix(.13333 0 0 -.13333 0 906.2)"/>
  <path d="M3614.77 6623.75c-17.5-13.75-51.25-45-105-56.25s-142.5-17.5-142.5-17.5l-5 17.5-75-2.5-6.25-26.25h-66.25l-20 13.75-65-3.75-23.75-28.75h-92.5s-33.75 11.25-47.5 25-85 60-85 60 51.25-5 115 0 208.75 43.75 247.5 52.5 426.25 31.25 481.25 26.25c0 0-92.5-46.25-110-60m568.75 81.25s-82.5 87.23-392.5 67.5c-310-19.72-787.5-20-957.51 5.01-64.11 9.42-306.46 26.17-361.29 15.64-19.37-3.72-54.57-13.58-49.72-39.77 3.56-19.17 38.91-33.38 56.02-33.38 20 0 147.5-37.5 147.5-37.5s40-42.5 62.5-62.5 72.5-17.5 120-32.5 105-70 122.5-92.5 105-42.5 105-42.5h77.5s17.5-67.5 30-90 67.5-92.5 132.5-207.5 307.5-910 307.5-910l270 11.67L3526.02 6350s-27.5 100-32.5 107.5-42.5 30-42.5 30 62.5 5 102.5 20 102.5 70 142.5 105 182.5 27.5 227.5 30 37.5-25 37.5-25c137.5 7.5 195 32.5 195 32.5v25c42.5 5 27.5 30 27.5 30m3216.64-1158.29c-76.65-48.13-357.42-91.29-369.98-70.04s-10 15 0 53.33c0 0-25 11.67-33.34 33.34-13.83 36.01-6.76 87.98-6.79 125.83-.05 58.2 24.8 83.25 80.23 103.08 151.78 54.33 291.04 78.16 451.07 82.34 91.27 2.39 182.55 4.74 273.83 7.09 0 0 33.33 26.66 61.69 35 97.74 28.68 221.72 3.37 319.86-5.14 151.23-13.12 302.65-24 454.19-32.63 65.85-3.75 121.16 23.21 159.83 76.18 35.32 48.39 38.12 144.37 110.08 150.3 73.1 6.01 190.42-24.21 246.02-72.05 0 0 30-11.66 0-53.34-30-41.66-131.67-256.66-138.34-275-6.66-18.33-21.66-68.33-23.33-86.66-1.67-18.34-8.33-290-31.67-375-23.32-84.96-25-149.93-21.67-176.63 3.69-29.63 29.97-47.66 34.32-76.99 2.51-16.94-8.2-51.42-30.24-44.86-8.94 2.66-22.04 40.47-25.92 48.26-17.65 35.46-44.86 79.57-46.49 120.22-1.66 41.66 8.34 90 8.33 90-26.87-4.42-54.87-11.97-82.01-13.47-25.6-1.4-25.62-8.55-39.94 15.02-10.23 16.86-16 146.33 1.96 156.78 0 0 91.66 53.33 111.66 66.67 20 13.33 23.34 75.22 23.34 92.61s18.33 84.05-16.67 114.05-68.33 31.67-68.34 31.67c-11.08-17.3-24.91-53.42-42.18-64.22-32.19-20.17-120.04-10.11-159.05-14.66-20.17-2.36-42.74-6.38-54.26-23.11-7.33-10.65-8.44-24.25-9.37-37.15-3.73-52.2-8.15-104.64-20.97-155.37-46.56-184.26-201.05-326.38-374.59-403.87-173.52-77.5-365.99-99.73-555.22-117.26-18.98-1.75-35.72.18-50.24 13.78-19.52 18.29-31.64 48.34-31.96 74.88-.34 28.82 12.51 52.96 30.09 74.86 31.37 39.1 89.21 39.96 139.32 41.32 135.93 3.68 271.17 36.29 393.16 96.37 77.36 38.12 150.65 88.41 202 157.7 89.35 120.56 88.38 271.64-35.8 365-92.87 69.81-504.3 52.96-596.36 33.58-98.94-20.84-183.56-71.33-273.11-115.69 10.6-16.64 23.03-32.12 36.86-46.12M4408.52 3065l-212.5-52.55-105-77.45s-15-22.5 0-52.5 45-154.73 47.5-168.61l202.5 37.42s7.5-18.54 37.5-37.42c0 0-5.58-96.18-49.04-190.04l221.54 153.04zm331.06-587.7c-317.67 0-576.12-258.44-576.12-576.11 0-317.68 258.45-576.12 576.12-576.12 317.68 0 576.12 258.44 576.12 576.12 0 317.67-258.44 576.11-576.12 576.11m0-1245.33c-369 0-669.21 300.21-669.21 669.22 0 369 300.21 669.21 669.21 669.21 369.01 0 669.22-300.21 669.22-669.21 0-369.01-300.21-669.22-669.22-669.22" style="fill:#000;fill-opacity:1;fill-rule:nonzero;stroke:none" transform="matrix(.13333 0 0 -.13333 0 906.2)"/>
  <path d="M4739.58 2352.77c-249 0-451.58-202.58-451.58-451.58 0-249.01 202.58-451.59 451.58-451.59 249.01 0 451.59 202.58 451.59 451.59 0 249-202.58 451.58-451.59 451.58m0-996.27c-300.34 0-544.68 244.34-544.68 544.69 0 300.34 244.34 544.68 544.68 544.68 300.35 0 544.69-244.34 544.69-544.68 0-300.35-244.34-544.69-544.69-544.69" style="fill:#000;fill-opacity:1;fill-rule:nonzero;stroke:none" transform="matrix(.13333 0 0 -.13333 0 906.2)"/>
  <path d="M4428.25 1901.19c0-171.95 139.39-311.34 311.33-311.34 171.95 0 311.34 139.39 311.34 311.34 0 171.94-139.39 311.33-311.34 311.33-171.94 0-311.33-139.39-311.33-311.33" style="fill:#000;fill-opacity:1;fill-rule:nonzero;stroke:none" transform="matrix(.13333 0 0 -.13333 0 906.2)"/>
  <path d="M4739.58 2040s872.31-61.38 1105.62-25.69v-226.25S4955.65 1785 4739.58 1745z" style="fill:#000;fill-opacity:1;fill-rule:nonzero;stroke:none" transform="matrix(.13333 0 0 -.13333 0 906.2)"/>
</svg>
